<?xml version="1.0" standalone="no"?>
<!DOCTYPE svg PUBLIC "-//W3C//DTD SVG 20010904//EN"
 "http://www.w3.org/TR/2001/REC-SVG-20010904/DTD/svg10.dtd">
<svg version="1.0" xmlns="http://www.w3.org/2000/svg"
 width="512.000000pt" height="512.000000pt" viewBox="0 0 512.000000 512.000000"
 preserveAspectRatio="xMidYMid meet">

<g transform="translate(0.000000,512.000000) scale(0.100000,-0.100000)"
fill="#9ca3af" stroke="none">
<path d="M312 3448 l3 -623 735 -77 c404 -42 845 -88 980 -102 547 -57 745
-79 749 -82 12 -11 -7 -13 -749 -90 -135 -14 -576 -60 -980 -102 l-735 -77 -3
-622 c-2 -504 0 -623 11 -623 7 0 60 16 117 36 58 20 350 118 650 219 763 257
3230 1087 3573 1203 75 25 137 49 137 52 0 3 -69 29 -152 57 -84 28 -596 200
-1138 383 -542 182 -1230 414 -1530 515 -300 101 -793 267 -1097 369 -304 102
-557 186 -563 186 -7 0 -9 -195 -8 -622z"/>
</g>
</svg>
