<?xml version="1.0" standalone="no"?>
<!DOCTYPE svg PUBLIC "-//W3C//DTD SVG 20010904//EN"
 "http://www.w3.org/TR/2001/REC-SVG-20010904/DTD/svg10.dtd">
<svg version="1.0" xmlns="http://www.w3.org/2000/svg"
 width="512.000000pt" height="512.000000pt" viewBox="0 0 512.000000 512.000000"
 preserveAspectRatio="xMidYMid meet">

<g transform="translate(0.000000,512.000000) scale(0.100000,-0.100000)"
fill="#9ca3af" stroke="none">
<path d="M2463 4835 c-128 -28 -119 -20 -889 -789 -760 -761 -764 -765 -764
-856 0 -33 6 -47 29 -69 54 -51 78 -54 474 -58 l367 -5 0 -661 c0 -377 4 -687
10 -721 27 -164 150 -303 313 -351 75 -22 1039 -22 1114 0 163 48 286 187 313
351 6 34 10 344 10 721 l0 661 368 5 c395 4 419 7 473 58 23 22 29 36 29 69 0
91 -4 95 -764 856 -774 774 -760 761 -893 789 -82 18 -109 18 -190 0z"/>
<path d="M218 856 c-97 -26 -176 -105 -205 -205 -40 -139 28 -285 163 -352
l49 -24 2335 0 2335 0 49 24 c63 31 122 90 149 150 30 64 30 178 0 242 -27 60
-92 125 -152 153 l-46 21 -2315 2 c-1847 1 -2325 -1 -2362 -11z"/>
</g>
</svg>
