<?xml version="1.0" encoding="utf-8"?>
<!-- Svg Vector Icons : http://www.onlinewebfonts.com/icon -->
<!DOCTYPE svg PUBLIC "-//W3C//DTD SVG 1.1//EN" "http://www.w3.org/Graphics/SVG/1.1/DTD/svg11.dtd">
<svg version="1.1" xmlns="http://www.w3.org/2000/svg" xmlns:xlink="http://www.w3.org/1999/xlink" x="0px" y="0px" viewBox="0 0 256 256" enable-background="new 0 0 256 256" xml:space="preserve">
<metadata> Svg Vector Icons : http://www.onlinewebfonts.com/icon </metadata>
<g><g><path fill="#ffffff" d="M10,128c0-17.8,14.4-32.2,32.2-32.2c17.8,0,32.2,14.4,32.2,32.2c0,17.8-14.4,32.2-32.2,32.2C24.4,160.2,10,145.8,10,128z"/><path fill="#ffffff" d="M95.8,128c0-17.8,14.4-32.2,32.2-32.2c17.8,0,32.2,14.4,32.2,32.2c0,17.8-14.4,32.2-32.2,32.2C110.2,160.2,95.8,145.8,95.8,128z"/><path fill="#ffffff" d="M181.6,128c0-17.8,14.4-32.2,32.2-32.2c17.8,0,32.2,14.4,32.2,32.2c0,17.8-14.4,32.2-32.2,32.2C196,160.2,181.6,145.8,181.6,128z"/></g></g>
</svg>