<?xml version="1.0" encoding="utf-8"?>
<!-- Svg Vector Icons : http://www.onlinewebfonts.com/icon -->
<!DOCTYPE svg PUBLIC "-//W3C//DTD SVG 1.1//EN" "http://www.w3.org/Graphics/SVG/1.1/DTD/svg11.dtd">
<svg version="1.1" xmlns="http://www.w3.org/2000/svg" xmlns:xlink="http://www.w3.org/1999/xlink" x="0px" y="0px" viewBox="0 0 256 256" enable-background="new 0 0 256 256" xml:space="preserve">
<metadata> Svg Vector Icons : http://www.onlinewebfonts.com/icon </metadata>
<g><g><g><path fill="#ffffff" d="M124.5,11c-1.4,0.7-15.2,14.1-43.6,42.5c-37.1,37.2-41.5,41.8-42,43.8c-1,3.8,0.5,7.8,3.8,10.3c2.1,1.5,7,1.8,9.4,0.6c1-0.5,16.4-15.5,34.3-33.3L119,42.4v98.4c0,107.3-0.2,99.6,3,102.7c3.6,3.4,8.9,3.4,12.4,0c3.2-3.1,3,4.6,3-102.3c0-53.9,0.2-98,0.4-98c0.2,0,14.7,14.4,32.2,31.9c17.5,17.5,32.8,32.3,33.8,32.9c4,2.1,9.5,0.7,12-3c1.8-2.7,2.1-6.8,0.7-9.5c-1.6-3.1-82.5-83.7-85-84.8C128.9,9.7,127.1,9.7,124.5,11z"/></g></g></g>
</svg>