<?xml version="1.0" encoding="utf-8"?>
<!-- Svg Vector Icons : http://www.onlinewebfonts.com/icon -->
<!DOCTYPE svg PUBLIC "-//W3C//DTD SVG 1.1//EN" "http://www.w3.org/Graphics/SVG/1.1/DTD/svg11.dtd">
<svg version="1.1" xmlns="http://www.w3.org/2000/svg" xmlns:xlink="http://www.w3.org/1999/xlink" x="0px" y="0px" viewBox="0 0 256 256" enable-background="new 0 0 256 256" xml:space="preserve">
<metadata> Svg Vector Icons : http://www.onlinewebfonts.com/icon </metadata>
<g><g><path fill="#9ca3af" d="M128,69c16.3,0,29.5-13.2,29.5-29.5c0-16.3-13.2-29.5-29.5-29.5c-16.3,0-29.5,13.2-29.5,29.5C98.5,55.8,111.7,69,128,69z"/><path fill="#9ca3af" d="M128,187c-16.3,0-29.5,13.2-29.5,29.5c0,16.3,13.2,29.5,29.5,29.5c16.3,0,29.5-13.2,29.5-29.5C157.5,200.2,144.3,187,128,187z"/><path fill="#9ca3af" d="M128,98.5c-16.3,0-29.5,13.2-29.5,29.5s13.2,29.5,29.5,29.5c16.3,0,29.5-13.2,29.5-29.5C157.5,111.7,144.3,98.5,128,98.5z"/></g></g>
</svg>